# xmcd
#
# Track frame offsets: 
#        150
#        19399
#        30731
#        47417
#        63699
#        79733
#        94090
#        116369
#        131263
#        147007
#        163559
#        177682
#        189649
#        201084
#        213795
#        225326
#        240651
#        255710
#        269405
#        285881
#        303620
#        317239
#
# Disc length: 4435 seconds
#
# Revision: 1
# Processed by: cddbd v1.5.2PL0 Copyright (c) Steve Scherf et al.
# Submitted via: ExactAudioCopyFreeDBPlugin 1.0
#
DISCID=33115116
DTITLE=Barbara Acklin - The Complete Barbara Acklin on Brunswick Recor
DTITLE=ds
DYEAR=2004
DGENRE=Soul
TTITLE0=Someone Else's Arms
TTITLE1=After You
TTITLE2=Is It Me
TTITLE3=Quiet Nights of Quiet Stars (Corcovado)
TTITLE4=What's It Gonna Be
TTITLE5=More (Theme from "Mondo Cane")
TTITLE6=He's Just a Little Guy
TTITLE7=More Today Than Yesterday
TTITLE8=Spinning Wheel
TTITLE9=More Ways Than One
TTITLE10=You've Been in Love Too Long
TTITLE11=I Did It
TTITLE12=I Can't Do My Thing
TTITLE13=I'm Living with a Memory
TTITLE14=Make the Man Love You
TTITLE15=I'll Bake Me a Man
TTITLE16=I Call it Trouble
TTITLE17=Lady Lady Lady
TTITLE18=Portrait of a Broken Heart
TTITLE19=Stop, Look and Listen (To Your Heart)
TTITLE20=It's a Groovy Idea
TTITLE21=Love You Are Mine Today
EXTD=#01-11 Someone Else's Arms\r\n#12-15 I Did It \r\n#16-21 I Call I
EXTD=t Trouble\r\n# 22 bonus track
EXTT0=
EXTT1=
EXTT2=
EXTT3=
EXTT4=
EXTT5=
EXTT6=
EXTT7=
EXTT8=
EXTT9=
EXTT10=
EXTT11=
EXTT12=
EXTT13=
EXTT14=
EXTT15=
EXTT16=
EXTT17=
EXTT18=
EXTT19=
EXTT20=
EXTT21=
PLAYORDER=
